# xmcd
#
# Track frame offsets: 
#        150
#        15396
#        38001
#        61032
#        81199
#        100648
#        133523
#
# Disc length: 3925 seconds
#
# Revision: 1
# Processed by: cddbd v1.5.2PL0 Copyright (c) Steve Scherf et al.
# Submitted via: ExactAudioCopy v0.99pb4
#
DISCID=440f5307
DTITLE=Eric Bibb - Live à FIP - CD 2
DYEAR=2009
DGENRE=Blues
TTITLE0=Stagolee
TTITLE1=Goin' Down Slow
TTITLE2=Come Back Baby
TTITLE3=Saucer 'n' Cup
TTITLE4=Destiny Blues
TTITLE5=Don't Ever Let Nobody Drag Your Spirit Down
TTITLE6=DataTrack
EXTD=
EXTT0=
EXTT1=
EXTT2=
EXTT3=
EXTT4=
EXTT5=
EXTT6=
PLAYORDER=
